<?xml version="1.0" ?>
<svg xmlns="http://www.w3.org/2000/svg" viewBox="0 0 335 61" width="335" height="61">
  <path d="M 71,0 L 70,1 L 69,1 L 68,2 L 67,2 L 66,3 L 65,3 L 61,7 L 60,7 L 55,12 L 55,13 L 52,16 L 52,17 L 50,19 L 50,20 L 48,22 L 48,23 L 46,25 L 46,26 L 45,27 L 45,28 L 43,30 L 43,31 L 41,33 L 41,34 L 39,36 L 39,37 L 37,39 L 37,40 L 27,50 L 26,50 L 24,52 L 23,52 L 21,54 L 20,54 L 19,55 L 18,55 L 17,56 L 16,56 L 15,57 L 14,57 L 13,58 L 10,58 L 9,59 L 7,59 L 6,60 L 0,60 L 334,60 L 329,60 L 328,59 L 326,59 L 325,58 L 323,58 L 322,57 L 321,57 L 320,56 L 319,56 L 318,55 L 317,55 L 316,54 L 315,54 L 314,53 L 313,53 L 310,50 L 309,50 L 297,38 L 297,37 L 294,34 L 294,33 L 291,30 L 291,29 L 289,27 L 289,26 L 286,23 L 286,22 L 284,20 L 284,19 L 282,17 L 282,16 L 280,14 L 280,13 L 278,11 L 278,10 L 275,7 L 275,6 L 271,2 L 270,2 L 269,1 L 268,1 L 267,0 Z" fill="black"/>
</svg>
